<svg width="56" height="56" viewBox="0 0 56 56" fill="none" xmlns="http://www.w3.org/2000/svg">
<path d="M28 27.9419C25.4334 27.9419 23.3334 27.1252 21.7 25.4919C20.0667 23.8586 19.25 21.7586 19.25 19.1919C19.25 16.6252 20.0667 14.5252 21.7 12.8919C23.3334 11.2586 25.4334 10.4419 28 10.4419C30.5667 10.4419 32.6667 11.2586 34.3 12.8919C35.9334 14.5252 36.75 16.6252 36.75 19.1919C36.75 21.7586 35.9334 23.8586 34.3 25.4919C32.6667 27.1252 30.5667 27.9419 28 27.9419ZM9.33337 46.6669V41.1836C9.33337 39.7058 9.70282 38.4419 10.4417 37.3919C11.1806 36.3419 12.1334 35.5447 13.3 35.0002C15.9056 33.8336 18.4042 32.9586 20.7959 32.3752C23.1875 31.7919 25.5889 31.5002 28 31.5002C30.4112 31.5002 32.8028 31.8016 35.175 32.4044C37.5473 33.0072 40.0361 33.8724 42.6417 35.0002C43.8473 35.5447 44.8195 36.3419 45.5584 37.3919C46.2973 38.4419 46.6667 39.7058 46.6667 41.1836V46.6669H9.33337Z" fill="#233BA9"/>
</svg>
